<svg xmlns="http://www.w3.org/2000/svg" width="1410" height="501" viewBox="0 0 1410 501">
<rect width="100%" height="100%" fill="#ffffff"/>
<style>text{font-family:ui-monospace,SFMono-Regular,Menlo,monospace;font-size:11px}.title{font-size:15px;font-weight:600}</style>
<text class="title" x="12" y="20">Generated DavinciOO PTO trace swimlane — 453 cycles</text>
<line x1="180.0" y1="48" x2="180.0" y2="473" stroke="#e5e7eb"/>
<text x="182.0" y="42">0</text>
<line x1="299.2" y1="48" x2="299.2" y2="473" stroke="#e5e7eb"/>
<text x="301.2" y="42">45</text>
<line x1="418.4" y1="48" x2="418.4" y2="473" stroke="#e5e7eb"/>
<text x="420.4" y="42">90</text>
<line x1="537.6" y1="48" x2="537.6" y2="473" stroke="#e5e7eb"/>
<text x="539.6" y="42">135</text>
<line x1="656.8" y1="48" x2="656.8" y2="473" stroke="#e5e7eb"/>
<text x="658.8" y="42">180</text>
<line x1="776.0" y1="48" x2="776.0" y2="473" stroke="#e5e7eb"/>
<text x="778.0" y="42">225</text>
<line x1="895.2" y1="48" x2="895.2" y2="473" stroke="#e5e7eb"/>
<text x="897.2" y="42">270</text>
<line x1="1014.4" y1="48" x2="1014.4" y2="473" stroke="#e5e7eb"/>
<text x="1016.4" y="42">315</text>
<line x1="1133.6" y1="48" x2="1133.6" y2="473" stroke="#e5e7eb"/>
<text x="1135.6" y="42">360</text>
<line x1="1252.8" y1="48" x2="1252.8" y2="473" stroke="#e5e7eb"/>
<text x="1254.8" y="42">405</text>
<line x1="1372.1" y1="48" x2="1372.1" y2="473" stroke="#e5e7eb"/>
<text x="1374.1" y="42">450</text>
<text x="8" y="77">00 TASSIGN</text>
<line x1="180" y1="84" x2="1390" y2="84" stroke="#f3f4f6"/>
<text x="8" y="102">01 TLOAD</text>
<line x1="180" y1="109" x2="1390" y2="109" stroke="#f3f4f6"/>
<text x="8" y="127">02 TASSIGN</text>
<line x1="180" y1="134" x2="1390" y2="134" stroke="#f3f4f6"/>
<text x="8" y="152">03 TASSIGN</text>
<line x1="180" y1="159" x2="1390" y2="159" stroke="#f3f4f6"/>
<text x="8" y="177">04 TROWMAX</text>
<line x1="180" y1="184" x2="1390" y2="184" stroke="#f3f4f6"/>
<text x="8" y="202">05 TASSIGN</text>
<line x1="180" y1="209" x2="1390" y2="209" stroke="#f3f4f6"/>
<text x="8" y="227">06 TROWEXPANDSUB</text>
<line x1="180" y1="234" x2="1390" y2="234" stroke="#f3f4f6"/>
<text x="8" y="252">07 TASSIGN</text>
<line x1="180" y1="259" x2="1390" y2="259" stroke="#f3f4f6"/>
<text x="8" y="277">08 TEXP</text>
<line x1="180" y1="284" x2="1390" y2="284" stroke="#f3f4f6"/>
<text x="8" y="302">09 TASSIGN</text>
<line x1="180" y1="309" x2="1390" y2="309" stroke="#f3f4f6"/>
<text x="8" y="327">10 TASSIGN</text>
<line x1="180" y1="334" x2="1390" y2="334" stroke="#f3f4f6"/>
<text x="8" y="352">11 TROWSUM</text>
<line x1="180" y1="359" x2="1390" y2="359" stroke="#f3f4f6"/>
<text x="8" y="377">12 TASSIGN</text>
<line x1="180" y1="384" x2="1390" y2="384" stroke="#f3f4f6"/>
<text x="8" y="402">13 TROWEXPANDDIV</text>
<line x1="180" y1="409" x2="1390" y2="409" stroke="#f3f4f6"/>
<text x="8" y="427">14 TSTORE</text>
<line x1="180" y1="434" x2="1390" y2="434" stroke="#f3f4f6"/>
<rect x="180.0" y="65" width="2.6" height="17" rx="2" fill="#93c5fd"><title>incoming [0,1)</title></rect>
<rect x="180.0" y="90" width="2.6" height="17" rx="2" fill="#d1d5db"><title>source_wait [0,1)</title></rect>
<rect x="182.6" y="90" width="2.6" height="17" rx="2" fill="#93c5fd"><title>incoming [1,2)</title></rect>
<rect x="180.0" y="115" width="5.3" height="17" rx="2" fill="#d1d5db"><title>source_wait [0,2)</title></rect>
<rect x="182.6" y="65" width="5.3" height="17" rx="2" fill="#60a5fa"><title>decoded [1,3)</title></rect>
<rect x="185.3" y="115" width="2.6" height="17" rx="2" fill="#93c5fd"><title>incoming [2,3)</title></rect>
<rect x="180.0" y="140" width="7.9" height="17" rx="2" fill="#d1d5db"><title>source_wait [0,3)</title></rect>
<rect x="187.9" y="65" width="2.6" height="17" rx="2" fill="#818cf8"><title>pipelined [3,4)</title></rect>
<rect x="185.3" y="90" width="5.3" height="17" rx="2" fill="#60a5fa"><title>decoded [2,4)</title></rect>
<rect x="187.9" y="140" width="2.6" height="17" rx="2" fill="#93c5fd"><title>incoming [3,4)</title></rect>
<rect x="180.0" y="165" width="10.6" height="17" rx="2" fill="#d1d5db"><title>source_wait [0,4)</title></rect>
<rect x="190.6" y="65" width="2.6" height="17" rx="2" fill="#fbbf24"><title>dispatch_scalar [4,5)</title></rect>
<rect x="190.6" y="90" width="2.6" height="17" rx="2" fill="#818cf8"><title>pipelined [4,5)</title></rect>
<rect x="187.9" y="115" width="5.3" height="17" rx="2" fill="#60a5fa"><title>decoded [3,5)</title></rect>
<rect x="190.6" y="165" width="2.6" height="17" rx="2" fill="#93c5fd"><title>incoming [4,5)</title></rect>
<rect x="180.0" y="190" width="13.2" height="17" rx="2" fill="#d1d5db"><title>source_wait [0,5)</title></rect>
<rect x="193.2" y="65" width="2.6" height="17" rx="2" fill="#f97316"><title>dispatched [5,6)</title></rect>
<rect x="193.2" y="90" width="2.6" height="17" rx="2" fill="#b45309"><title>dispatch_tma [5,6)</title></rect>
<rect x="193.2" y="115" width="2.6" height="17" rx="2" fill="#818cf8"><title>pipelined [5,6)</title></rect>
<rect x="190.6" y="140" width="5.3" height="17" rx="2" fill="#60a5fa"><title>decoded [4,6)</title></rect>
<rect x="193.2" y="190" width="2.6" height="17" rx="2" fill="#93c5fd"><title>incoming [5,6)</title></rect>
<rect x="180.0" y="215" width="15.9" height="17" rx="2" fill="#d1d5db"><title>source_wait [0,6)</title></rect>
<rect x="195.9" y="90" width="2.6" height="17" rx="2" fill="#f97316"><title>dispatched [6,7)</title></rect>
<rect x="195.9" y="115" width="2.6" height="17" rx="2" fill="#fbbf24"><title>dispatch_scalar [6,7)</title></rect>
<rect x="195.9" y="140" width="2.6" height="17" rx="2" fill="#818cf8"><title>pipelined [6,7)</title></rect>
<rect x="193.2" y="165" width="5.3" height="17" rx="2" fill="#60a5fa"><title>decoded [5,7)</title></rect>
<rect x="195.9" y="215" width="2.6" height="17" rx="2" fill="#93c5fd"><title>incoming [6,7)</title></rect>
<rect x="180.0" y="240" width="18.5" height="17" rx="2" fill="#d1d5db"><title>source_wait [0,7)</title></rect>
<rect x="198.5" y="115" width="2.6" height="17" rx="2" fill="#f97316"><title>dispatched [7,8)</title></rect>
<rect x="198.5" y="140" width="2.6" height="17" rx="2" fill="#fbbf24"><title>dispatch_scalar [7,8)</title></rect>
<rect x="198.5" y="165" width="2.6" height="17" rx="2" fill="#818cf8"><title>pipelined [7,8)</title></rect>
<rect x="195.9" y="190" width="5.3" height="17" rx="2" fill="#60a5fa"><title>decoded [6,8)</title></rect>
<rect x="198.5" y="240" width="2.6" height="17" rx="2" fill="#93c5fd"><title>incoming [7,8)</title></rect>
<rect x="180.0" y="265" width="21.2" height="17" rx="2" fill="#d1d5db"><title>source_wait [0,8)</title></rect>
<rect x="195.9" y="65" width="7.9" height="17" rx="2" fill="#ef4444"><title>schedule_execute [6,9)</title></rect>
<rect x="201.2" y="140" width="2.6" height="17" rx="2" fill="#f97316"><title>dispatched [8,9)</title></rect>
<rect x="201.2" y="165" width="2.6" height="17" rx="2" fill="#f59e0b"><title>dispatch_vector [8,9)</title></rect>
<rect x="201.2" y="190" width="2.6" height="17" rx="2" fill="#818cf8"><title>pipelined [8,9)</title></rect>
<rect x="198.5" y="215" width="5.3" height="17" rx="2" fill="#60a5fa"><title>decoded [7,9)</title></rect>
<rect x="201.2" y="265" width="2.6" height="17" rx="2" fill="#93c5fd"><title>incoming [8,9)</title></rect>
<rect x="180.0" y="290" width="23.8" height="17" rx="2" fill="#d1d5db"><title>source_wait [0,9)</title></rect>
<rect x="203.8" y="65" width="2.6" height="17" rx="2" fill="#34d399"><title>completed [9,10)</title></rect>
<rect x="203.8" y="165" width="2.6" height="17" rx="2" fill="#f97316"><title>dispatched [9,10)</title></rect>
<rect x="203.8" y="190" width="2.6" height="17" rx="2" fill="#fbbf24"><title>dispatch_scalar [9,10)</title></rect>
<rect x="203.8" y="215" width="2.6" height="17" rx="2" fill="#818cf8"><title>pipelined [9,10)</title></rect>
<rect x="201.2" y="240" width="5.3" height="17" rx="2" fill="#60a5fa"><title>decoded [8,10)</title></rect>
<rect x="203.8" y="290" width="2.6" height="17" rx="2" fill="#93c5fd"><title>incoming [9,10)</title></rect>
<rect x="180.0" y="315" width="26.5" height="17" rx="2" fill="#d1d5db"><title>source_wait [0,10)</title></rect>
<rect x="206.5" y="65" width="2.6" height="17" rx="2" fill="#10b981"><title>rob_wait [10,11)</title></rect>
<rect x="201.2" y="115" width="7.9" height="17" rx="2" fill="#ef4444"><title>schedule_execute [8,11)</title></rect>
<rect x="206.5" y="190" width="2.6" height="17" rx="2" fill="#f97316"><title>dispatched [10,11)</title></rect>
<rect x="206.5" y="215" width="2.6" height="17" rx="2" fill="#f59e0b"><title>dispatch_vector [10,11)</title></rect>
<rect x="206.5" y="240" width="2.6" height="17" rx="2" fill="#818cf8"><title>pipelined [10,11)</title></rect>
<rect x="203.8" y="265" width="5.3" height="17" rx="2" fill="#60a5fa"><title>decoded [9,11)</title></rect>
<rect x="206.5" y="315" width="2.6" height="17" rx="2" fill="#93c5fd"><title>incoming [10,11)</title></rect>
<rect x="180.0" y="340" width="29.1" height="17" rx="2" fill="#d1d5db"><title>source_wait [0,11)</title></rect>
<rect x="209.1" y="65" width="2.6" height="17" rx="2" fill="#059669"><title>retired [11,12)</title></rect>
<rect x="209.1" y="115" width="2.6" height="17" rx="2" fill="#34d399"><title>completed [11,12)</title></rect>
<rect x="203.8" y="140" width="7.9" height="17" rx="2" fill="#ef4444"><title>schedule_execute [9,12)</title></rect>
<rect x="209.1" y="215" width="2.6" height="17" rx="2" fill="#f97316"><title>dispatched [11,12)</title></rect>
<rect x="209.1" y="240" width="2.6" height="17" rx="2" fill="#fbbf24"><title>dispatch_scalar [11,12)</title></rect>
<rect x="209.1" y="265" width="2.6" height="17" rx="2" fill="#818cf8"><title>pipelined [11,12)</title></rect>
<rect x="206.5" y="290" width="5.3" height="17" rx="2" fill="#60a5fa"><title>decoded [10,12)</title></rect>
<rect x="209.1" y="340" width="2.6" height="17" rx="2" fill="#93c5fd"><title>incoming [11,12)</title></rect>
<rect x="180.0" y="365" width="31.8" height="17" rx="2" fill="#d1d5db"><title>source_wait [0,12)</title></rect>
<rect x="211.8" y="140" width="2.6" height="17" rx="2" fill="#34d399"><title>completed [12,13)</title></rect>
<rect x="211.8" y="240" width="2.6" height="17" rx="2" fill="#f97316"><title>dispatched [12,13)</title></rect>
<rect x="211.8" y="265" width="2.6" height="17" rx="2" fill="#f59e0b"><title>dispatch_vector [12,13)</title></rect>
<rect x="211.8" y="290" width="2.6" height="17" rx="2" fill="#818cf8"><title>pipelined [12,13)</title></rect>
<rect x="209.1" y="315" width="5.3" height="17" rx="2" fill="#60a5fa"><title>decoded [11,13)</title></rect>
<rect x="211.8" y="365" width="2.6" height="17" rx="2" fill="#93c5fd"><title>incoming [12,13)</title></rect>
<rect x="180.0" y="390" width="34.4" height="17" rx="2" fill="#d1d5db"><title>source_wait [0,13)</title></rect>
<rect x="209.1" y="190" width="7.9" height="17" rx="2" fill="#ef4444"><title>schedule_execute [11,14)</title></rect>
<rect x="214.4" y="265" width="2.6" height="17" rx="2" fill="#f97316"><title>dispatched [13,14)</title></rect>
<rect x="214.4" y="290" width="2.6" height="17" rx="2" fill="#fbbf24"><title>dispatch_scalar [13,14)</title></rect>
<rect x="214.4" y="315" width="2.6" height="17" rx="2" fill="#818cf8"><title>pipelined [13,14)</title></rect>
<rect x="211.8" y="340" width="5.3" height="17" rx="2" fill="#60a5fa"><title>decoded [12,14)</title></rect>
<rect x="214.4" y="390" width="2.6" height="17" rx="2" fill="#93c5fd"><title>incoming [13,14)</title></rect>
<rect x="180.0" y="415" width="37.1" height="17" rx="2" fill="#d1d5db"><title>source_wait [0,14)</title></rect>
<rect x="217.1" y="190" width="2.6" height="17" rx="2" fill="#34d399"><title>completed [14,15)</title></rect>
<rect x="217.1" y="290" width="2.6" height="17" rx="2" fill="#f97316"><title>dispatched [14,15)</title></rect>
<rect x="217.1" y="315" width="2.6" height="17" rx="2" fill="#fbbf24"><title>dispatch_scalar [14,15)</title></rect>
<rect x="217.1" y="340" width="2.6" height="17" rx="2" fill="#818cf8"><title>pipelined [14,15)</title></rect>
<rect x="214.4" y="365" width="5.3" height="17" rx="2" fill="#60a5fa"><title>decoded [13,15)</title></rect>
<rect x="217.1" y="415" width="2.6" height="17" rx="2" fill="#93c5fd"><title>incoming [14,15)</title></rect>
<rect x="214.4" y="240" width="7.9" height="17" rx="2" fill="#ef4444"><title>schedule_execute [13,16)</title></rect>
<rect x="219.7" y="315" width="2.6" height="17" rx="2" fill="#f97316"><title>dispatched [15,16)</title></rect>
<rect x="219.7" y="340" width="2.6" height="17" rx="2" fill="#f59e0b"><title>dispatch_vector [15,16)</title></rect>
<rect x="219.7" y="365" width="2.6" height="17" rx="2" fill="#818cf8"><title>pipelined [15,16)</title></rect>
<rect x="217.1" y="390" width="5.3" height="17" rx="2" fill="#60a5fa"><title>decoded [14,16)</title></rect>
<rect x="222.4" y="240" width="2.6" height="17" rx="2" fill="#34d399"><title>completed [16,17)</title></rect>
<rect x="222.4" y="340" width="2.6" height="17" rx="2" fill="#f97316"><title>dispatched [16,17)</title></rect>
<rect x="222.4" y="365" width="2.6" height="17" rx="2" fill="#fbbf24"><title>dispatch_scalar [16,17)</title></rect>
<rect x="222.4" y="390" width="2.6" height="17" rx="2" fill="#818cf8"><title>pipelined [16,17)</title></rect>
<rect x="219.7" y="415" width="5.3" height="17" rx="2" fill="#60a5fa"><title>decoded [15,17)</title></rect>
<rect x="219.7" y="290" width="7.9" height="17" rx="2" fill="#ef4444"><title>schedule_execute [15,18)</title></rect>
<rect x="225.0" y="365" width="2.6" height="17" rx="2" fill="#f97316"><title>dispatched [17,18)</title></rect>
<rect x="225.0" y="390" width="2.6" height="17" rx="2" fill="#f59e0b"><title>dispatch_vector [17,18)</title></rect>
<rect x="225.0" y="415" width="2.6" height="17" rx="2" fill="#818cf8"><title>pipelined [17,18)</title></rect>
<rect x="227.7" y="290" width="2.6" height="17" rx="2" fill="#34d399"><title>completed [18,19)</title></rect>
<rect x="222.4" y="315" width="7.9" height="17" rx="2" fill="#ef4444"><title>schedule_execute [16,19)</title></rect>
<rect x="227.7" y="390" width="2.6" height="17" rx="2" fill="#f97316"><title>dispatched [18,19)</title></rect>
<rect x="227.7" y="415" width="2.6" height="17" rx="2" fill="#b45309"><title>dispatch_tma [18,19)</title></rect>
<rect x="230.3" y="315" width="2.6" height="17" rx="2" fill="#34d399"><title>completed [19,20)</title></rect>
<rect x="230.3" y="415" width="2.6" height="17" rx="2" fill="#f97316"><title>dispatched [19,20)</title></rect>
<rect x="227.7" y="365" width="7.9" height="17" rx="2" fill="#ef4444"><title>schedule_execute [18,21)</title></rect>
<rect x="235.6" y="365" width="2.6" height="17" rx="2" fill="#34d399"><title>completed [21,22)</title></rect>
<rect x="198.5" y="90" width="331.1" height="17" rx="2" fill="#ef4444"><title>schedule_execute [7,132)</title></rect>
<rect x="529.7" y="90" width="2.6" height="17" rx="2" fill="#34d399"><title>completed [132,133)</title></rect>
<rect x="532.3" y="90" width="2.6" height="17" rx="2" fill="#10b981"><title>rob_wait [133,134)</title></rect>
<rect x="535.0" y="90" width="2.6" height="17" rx="2" fill="#059669"><title>retired [134,135)</title></rect>
<rect x="211.8" y="115" width="325.8" height="17" rx="2" fill="#10b981"><title>rob_wait [12,135)</title></rect>
<rect x="537.6" y="115" width="2.6" height="17" rx="2" fill="#059669"><title>retired [135,136)</title></rect>
<rect x="214.4" y="140" width="325.8" height="17" rx="2" fill="#10b981"><title>rob_wait [13,136)</title></rect>
<rect x="540.3" y="140" width="2.6" height="17" rx="2" fill="#059669"><title>retired [136,137)</title></rect>
<rect x="206.5" y="165" width="694.0" height="17" rx="2" fill="#ef4444"><title>schedule_execute [10,272)</title></rect>
<rect x="900.5" y="165" width="2.6" height="17" rx="2" fill="#34d399"><title>completed [272,273)</title></rect>
<rect x="903.2" y="165" width="2.6" height="17" rx="2" fill="#10b981"><title>rob_wait [273,274)</title></rect>
<rect x="905.8" y="165" width="2.6" height="17" rx="2" fill="#059669"><title>retired [274,275)</title></rect>
<rect x="219.7" y="190" width="688.7" height="17" rx="2" fill="#10b981"><title>rob_wait [15,275)</title></rect>
<rect x="908.5" y="190" width="2.6" height="17" rx="2" fill="#059669"><title>retired [275,276)</title></rect>
<rect x="211.8" y="215" width="723.2" height="17" rx="2" fill="#ef4444"><title>schedule_execute [12,285)</title></rect>
<rect x="935.0" y="215" width="2.6" height="17" rx="2" fill="#34d399"><title>completed [285,286)</title></rect>
<rect x="937.6" y="215" width="2.6" height="17" rx="2" fill="#10b981"><title>rob_wait [286,287)</title></rect>
<rect x="940.3" y="215" width="2.6" height="17" rx="2" fill="#059669"><title>retired [287,288)</title></rect>
<rect x="225.0" y="240" width="717.9" height="17" rx="2" fill="#10b981"><title>rob_wait [17,288)</title></rect>
<rect x="942.9" y="240" width="2.6" height="17" rx="2" fill="#059669"><title>retired [288,289)</title></rect>
<rect x="217.1" y="265" width="752.3" height="17" rx="2" fill="#ef4444"><title>schedule_execute [14,298)</title></rect>
<rect x="969.4" y="265" width="2.6" height="17" rx="2" fill="#34d399"><title>completed [298,299)</title></rect>
<rect x="972.1" y="265" width="2.6" height="17" rx="2" fill="#10b981"><title>rob_wait [299,300)</title></rect>
<rect x="974.7" y="265" width="2.6" height="17" rx="2" fill="#059669"><title>retired [300,301)</title></rect>
<rect x="230.3" y="290" width="747.0" height="17" rx="2" fill="#10b981"><title>rob_wait [19,301)</title></rect>
<rect x="977.4" y="290" width="2.6" height="17" rx="2" fill="#059669"><title>retired [301,302)</title></rect>
<rect x="233.0" y="315" width="747.0" height="17" rx="2" fill="#10b981"><title>rob_wait [20,302)</title></rect>
<rect x="980.0" y="315" width="2.6" height="17" rx="2" fill="#059669"><title>retired [302,303)</title></rect>
<rect x="225.0" y="340" width="778.8" height="17" rx="2" fill="#ef4444"><title>schedule_execute [17,311)</title></rect>
<rect x="1003.8" y="340" width="2.6" height="17" rx="2" fill="#34d399"><title>completed [311,312)</title></rect>
<rect x="1006.5" y="340" width="2.6" height="17" rx="2" fill="#10b981"><title>rob_wait [312,313)</title></rect>
<rect x="1009.1" y="340" width="2.6" height="17" rx="2" fill="#059669"><title>retired [313,314)</title></rect>
<rect x="238.3" y="365" width="773.5" height="17" rx="2" fill="#10b981"><title>rob_wait [22,314)</title></rect>
<rect x="1011.8" y="365" width="2.6" height="17" rx="2" fill="#059669"><title>retired [314,315)</title></rect>
<rect x="230.3" y="390" width="807.9" height="17" rx="2" fill="#ef4444"><title>schedule_execute [19,324)</title></rect>
<rect x="1038.3" y="390" width="2.6" height="17" rx="2" fill="#34d399"><title>completed [324,325)</title></rect>
<rect x="1040.9" y="390" width="2.6" height="17" rx="2" fill="#10b981"><title>rob_wait [325,326)</title></rect>
<rect x="1043.6" y="390" width="2.6" height="17" rx="2" fill="#059669"><title>retired [326,327)</title></rect>
<rect x="233.0" y="415" width="1136.4" height="17" rx="2" fill="#ef4444"><title>schedule_execute [20,449)</title></rect>
<rect x="1369.4" y="415" width="2.6" height="17" rx="2" fill="#34d399"><title>completed [449,450)</title></rect>
<rect x="1372.1" y="415" width="2.6" height="17" rx="2" fill="#10b981"><title>rob_wait [450,451)</title></rect>
<rect x="1374.7" y="415" width="2.6" height="17" rx="2" fill="#059669"><title>retired [451,452)</title></rect>
<rect x="180" y="459" width="12" height="12" rx="2" fill="#60a5fa"/>
<text x="197" y="469">frontend</text>
<rect x="305" y="459" width="12" height="12" rx="2" fill="#f59e0b"/>
<text x="322" y="469">dispatch</text>
<rect x="430" y="459" width="12" height="12" rx="2" fill="#ef4444"/>
<text x="447" y="469">schedule/execute</text>
<rect x="555" y="459" width="12" height="12" rx="2" fill="#10b981"/>
<text x="572" y="469">ROB wait</text>
<rect x="680" y="459" width="12" height="12" rx="2" fill="#059669"/>
<text x="697" y="469">retired</text>
<text x="180" y="26">cycle</text>
</svg>
